<?xml version="1.0" encoding="UTF-8"?>
<svg id="_레이어_2" data-name="레이어_2" xmlns="http://www.w3.org/2000/svg" viewBox="0 0 353.81 169.26">
  <defs>
    <style>
      .cls-1 {
        fill: #273516;
      }
    </style>
  </defs>
  <g id="_레이어_1-2" data-name="레이어_1">
    <g>
      <g>
        <g>
          <path class="cls-1" d="M117.45,51.13h-28.89c-8.26,0-12.59-5.93-9.64-13.22,2.95-7.29,12.07-13.22,20.33-13.22h77.5L186.4,0h-77.18c-23.7,0-49.85,17.01-58.3,37.91-8.45,20.91,3.95,37.91,27.65,37.91h28.89c8.26,0,12.59,5.93,9.64,13.22-2.95,7.29-12.07,13.22-20.33,13.22H23.74L0,126.96h86.79c23.7,0,49.85-17.01,58.3-37.91,8.45-20.91-3.95-37.91-27.65-37.91Z"/>
          <polygon class="cls-1" points="193.15 0 191.49 0 141.83 126.96 169.82 126.96 170.29 126.96 183.22 93.91 190.69 74.83 219.96 0 193.15 0"/>
        </g>
        <path class="cls-1" d="M273.46,55.03h-6.09l-.57,1.28c-.04.07-.08.1-.11.18-2.61,6.08-5.38,12.12-8.02,18.19,0,0,0,0,0,0,0,0,0,0,0,0l-1.07,2.42h35.11c-1.54,2.73-3.26,5.36-5.27,7.81-4.61,4.65-9.66,8.48-15.54,10.73-13.49,5.18-26.49,5.72-38.99,2.68-7.05-1.71-10.62-6.7-10.48-14.67.11-5.92,1.82-11.73,4.12-17.48,4.98-12.45,12.65-24.57,23.92-32.22,10.88-7.38,22.51-7.37,35.09-7.37,14.25,0,28.49,0,42.74,0L353.81.06h-69.18c-1.69,0-3.22.01-4.55.02-23.49.13-45.27,12.05-60.6,29.35-6.07,6.85-11.11,14.31-14.95,22.48-5.75,12.23-10.85,24.55-11.86,37.52-.58,7.39.24,14.24,3.45,20.24,2.55,5.26,6.58,8.98,11.58,11.62,5.23,2.76,11.03,4.22,16.88,4.81,12.41,1.26,25.13-.6,36.62-5.49,5.84-2.49,11.35-5.73,16.41-9.57,0,0,.01,0,.02,0l3.08-2.27-.22.48-2.87,6.4.03-.02c-.26.6-.51,1.2-.77,1.8-.67,1.54-1.33,3.09-1.99,4.63l-2.14,4.89h24.89l2.26-5.02c.35-.72.73-1.54,1.2-2.6.28-.64.57-1.27.85-1.91,7.52-16.88,15.06-33.77,22.61-50.64,1.2-2.68,2.39-5.37,3.59-8.05.03-.06.04-.11.07-.17l1.58-3.54h-56.33Z"/>
      </g>
      <g>
        <path class="cls-1" d="M41.77,169.26c-1.98,0-3.84-.38-5.6-1.13-1.76-.75-3.3-1.79-4.62-3.12l2.65-3.12c1.04,1.01,2.23,1.83,3.57,2.46,1.34.62,2.71.94,4.11.94,1.72,0,3.04-.38,3.96-1.13.92-.75,1.38-1.73,1.38-2.92,0-.88-.19-1.59-.58-2.12-.39-.53-.93-.98-1.62-1.35-.69-.36-1.48-.74-2.36-1.13l-3.98-1.72c-.94-.39-1.85-.9-2.75-1.54-.9-.64-1.64-1.44-2.22-2.42-.58-.97-.88-2.16-.88-3.57,0-1.51.4-2.86,1.21-4.06.81-1.2,1.92-2.14,3.35-2.83,1.43-.69,3.05-1.03,4.88-1.03,1.69,0,3.29.33,4.8.97,1.51.65,2.79,1.54,3.86,2.65l-2.3,2.89c-.91-.81-1.88-1.44-2.91-1.89-1.03-.45-2.18-.68-3.45-.68-1.48,0-2.65.33-3.51.99-.86.66-1.29,1.55-1.29,2.67,0,.83.22,1.51.66,2.05.44.53,1.02.98,1.74,1.33s1.45.68,2.2.99l3.94,1.68c1.14.47,2.16,1.04,3.04,1.72s1.57,1.5,2.07,2.46c.49.96.74,2.16.74,3.59,0,1.53-.4,2.93-1.21,4.19-.81,1.26-1.96,2.28-3.47,3.04s-3.31,1.15-5.42,1.15Z"/>
        <path class="cls-1" d="M57.29,168.72v-28.74h4.52v28.74h-4.52Z"/>
        <path class="cls-1" d="M81.08,169.26c-2.55,0-4.83-.58-6.84-1.75-2.02-1.17-3.6-2.86-4.76-5.07-1.16-2.21-1.74-4.89-1.74-8.03,0-2.34.34-4.43,1.03-6.28.69-1.85,1.64-3.41,2.85-4.7,1.21-1.29,2.63-2.27,4.25-2.95,1.62-.68,3.4-1.01,5.32-1.01,2.03,0,3.74.38,5.13,1.13,1.39.75,2.52,1.59,3.37,2.5l-2.42,2.89c-.73-.7-1.56-1.31-2.5-1.81-.94-.51-2.09-.76-3.47-.76-1.77,0-3.32.44-4.66,1.33-1.34.88-2.38,2.13-3.12,3.74-.74,1.61-1.11,3.55-1.11,5.81s.35,4.22,1.05,5.87c.7,1.65,1.73,2.92,3.08,3.8,1.35.88,3.02,1.33,4.99,1.33.88,0,1.72-.12,2.52-.37.79-.25,1.44-.59,1.93-1.03v-6.71h-5.65v-3.74h9.79v12.44c-.96.96-2.22,1.77-3.78,2.42-1.56.65-3.32.97-5.26.97Z"/>
        <path class="cls-1" d="M105.46,168.72v-28.74h5.23l5.23,14.55c.34.94.66,1.89.97,2.87.31.97.62,1.94.94,2.91h.19c.34-.96.66-1.93.96-2.91.3-.98.6-1.93.92-2.87l5.15-14.55h5.26v28.74h-4.21v-14.2c0-.86.03-1.81.1-2.85.06-1.04.14-2.09.23-3.16.09-1.07.19-2.03.29-2.89h-.2l-2.3,6.63-4.99,13.69h-2.81l-5.03-13.69-2.3-6.63h-.16c.1.86.2,1.82.29,2.89.09,1.07.17,2.12.23,3.16.06,1.04.1,1.99.1,2.85v14.2h-4.09Z"/>
        <path class="cls-1" d="M134.04,168.72l9.52-28.74h5.23l9.52,28.74h-4.8l-4.64-15.6c-.47-1.56-.92-3.14-1.37-4.74-.44-1.6-.88-3.2-1.33-4.82h-.16c-.42,1.64-.85,3.25-1.31,4.84-.46,1.59-.92,3.16-1.38,4.72l-4.64,15.6h-4.64ZM139.43,160.57v-3.59h13.42v3.59h-13.42Z"/>
        <path class="cls-1" d="M162.09,168.72v-28.74h9.4c1.98,0,3.74.27,5.3.8,1.56.53,2.79,1.4,3.71,2.61.91,1.21,1.36,2.85,1.36,4.93s-.46,3.65-1.36,4.95c-.91,1.3-2.15,2.27-3.71,2.91-1.56.64-3.33.96-5.3.96h-4.88v11.58h-4.52ZM166.61,153.51h4.33c2.08,0,3.67-.44,4.78-1.31s1.66-2.16,1.66-3.88-.55-2.96-1.66-3.65c-1.11-.69-2.7-1.03-4.78-1.03h-4.33v9.87ZM177.76,168.72l-7.14-12.79,3.35-2.61,8.89,15.41h-5.11Z"/>
        <path class="cls-1" d="M187.67,168.72v-28.74h4.52v13.61h.12l10.88-13.61h5.11l-8.93,11.12,10.37,17.63h-5.03l-8.07-14.04-4.45,5.38v8.66h-4.52Z"/>
        <path class="cls-1" d="M213.57,168.72v-28.74h16.96v3.82h-12.44v8h10.53v3.82h-10.53v9.24h12.87v3.86h-17.39Z"/>
        <path class="cls-1" d="M242.78,168.72v-24.92h-8.38v-3.82h21.41v3.82h-8.42v24.92h-4.6Z"/>
        <path class="cls-1" d="M260.79,168.72v-28.74h4.52v28.74h-4.52Z"/>
        <path class="cls-1" d="M272.84,168.72v-28.74h4.64l9.52,16.89,3,6.05h.19c-.13-1.46-.27-3.02-.41-4.68-.14-1.66-.21-3.28-.21-4.84v-13.42h4.33v28.74h-4.64l-9.52-16.93-3-6.01h-.16c.1,1.48.22,3.03.35,4.64.13,1.61.2,3.21.2,4.8v13.49h-4.29Z"/>
        <path class="cls-1" d="M313.21,169.26c-2.55,0-4.83-.58-6.84-1.75-2.02-1.17-3.6-2.86-4.76-5.07-1.16-2.21-1.74-4.89-1.74-8.03,0-2.34.34-4.43,1.03-6.28.69-1.85,1.64-3.41,2.85-4.7,1.21-1.29,2.63-2.27,4.25-2.95,1.62-.68,3.4-1.01,5.32-1.01,2.03,0,3.74.38,5.13,1.13,1.39.75,2.52,1.59,3.37,2.5l-2.42,2.89c-.73-.7-1.56-1.31-2.5-1.81-.94-.51-2.09-.76-3.47-.76-1.77,0-3.32.44-4.66,1.33-1.34.88-2.38,2.13-3.12,3.74-.74,1.61-1.11,3.55-1.11,5.81s.35,4.22,1.05,5.87c.7,1.65,1.73,2.92,3.08,3.8,1.35.88,3.02,1.33,4.99,1.33.88,0,1.72-.12,2.52-.37.79-.25,1.44-.59,1.93-1.03v-6.71h-5.65v-3.74h9.79v12.44c-.96.96-2.22,1.77-3.78,2.42-1.56.65-3.32.97-5.26.97Z"/>
      </g>
    </g>
  </g>
</svg>